HIERARCHY
ROOT pelvis
{
  OFFSET 0 100 0
  CHANNELS 6 Xposition Yposition Zposition Zrotation Xrotation Yrotation
  JOINT pelvis_right_femur
  {
    OFFSET -10.78128 -3.44521 -0.5502486
    CHANNELS 3 Zrotation Xrotation Yrotation
    JOINT right_femur_tibia
    {
      OFFSET -0.8047443 -44.0398 -0.1307829
      CHANNELS 3 Zrotation Xrotation Yrotation
      JOINT right_tibia_foot
      {
        OFFSET 3.006224 -47.83518 -5
        CHANNELS 3 Zrotation Xrotation Yrotation
        End Site
        {
          OFFSET 0 -5 15
        }
      }
    }
  }
  JOINT pelvis_left_femur
  {
    OFFSET 10.78128 -3.44521 -0.5502486
    CHANNELS 3 Zrotation Xrotation Yrotation
    JOINT left_femur_tibia
    {
      OFFSET 0.8047443 -44.0398 -0.1307829
      CHANNELS 3 Zrotation Xrotation Yrotation
      JOINT left_tibia_foot
      {
        OFFSET -4.370144 -48.10324 -4.275266
        CHANNELS 3 Zrotation Xrotation Yrotation
        End Site
        {
          OFFSET 0 -5 15
        }
      }
    }
  }
  JOINT pelvis_spine1
  {
    OFFSET 0 6.468898 -3.129235
    CHANNELS 3 Zrotation Xrotation Yrotation
    JOINT spine1
    {
      OFFSET 0 23.15396 4.99043
      CHANNELS 3 Zrotation Xrotation Yrotation
      JOINT spine2
      {
        OFFSET 0 20.79997 -5.064912
        CHANNELS 3 Zrotation Xrotation Yrotation
        JOINT neck
        {
          OFFSET 0 14.38658 9.616178
          CHANNELS 3 Zrotation Xrotation Yrotation
          End Site
          {
            OFFSET 0 20 0
          }
        }
      }
      JOINT right_manubrium
      {
        OFFSET -5.722621 16.35077 3.967754
        CHANNELS 3 Zrotation Xrotation Yrotation
        JOINT right_clavicle
        {
          OFFSET -13.16364 1.694482 -4.693211
          CHANNELS 3 Zrotation Xrotation Yrotation
          JOINT right_humerus
          {
            OFFSET -28.5034 -0.3100689 -2.792744
            CHANNELS 3 Zrotation Xrotation Yrotation
            JOINT right_radius
            {
              OFFSET -25.15693 0.02248979 -1.271978
              CHANNELS 3 Zrotation Xrotation Yrotation
              End Site
              {
                OFFSET -15 0 0
              }
            }
          }
        }
      }
      JOINT left_manubrium
      {
        OFFSET 5.722621 16.35077 3.967754
        CHANNELS 3 Zrotation Xrotation Yrotation
        JOINT left_clavicle
        {
          OFFSET 13.16364 1.694482 -4.693211
          CHANNELS 3 Zrotation Xrotation Yrotation
          JOINT left_humerus
          {
            OFFSET 29.39168 -1.063119 -2.237045
            CHANNELS 3 Zrotation Xrotation Yrotation
            JOINT left_radius
            {
              OFFSET 24.59957 -0.9528479 0.9047498
              CHANNELS 3 Zrotation Xrotation Yrotation
              End Site
              {
                OFFSET 15 -0 -0
              }
            }
          }
        }
      }
    }
  }
}
MOTION
Frames: 13
Frame Time: 0.0416666666667
0 103.5113 0 2.499979 -1.981269 0.1734345 1.162204 -11.31431 7.614253 -0 37.00506 -0 -4.901242 -19.13906 -3.439025 -8.007297 11.60282 -23.9595 -0 4.291944 -0 7.866411 -15.96666 26.01692 -4.118392 -4.739904 5.613717 3.059939 10.70335 -8.166578 2.257561 21.66362 5.028061 2.068534 -26.3382 9.742699 5.869742 -21.46866 10.841 86.48419 34.40786 -20.93037 -0 0 17.40739 -4.870342 6.984276 2.104887 6.273084 -20.51371 -2.182871 -95.61998 26.27787 24.1984 0 0 -15.59805 11.51044 17.56156 2.580207
0.2509928 103.4197 1.288518 1.877181 -1.168637 0.1837143 2.087769 -13.40506 8.439803 -0 37.04522 -0 -4.693364 -18.57163 -3.607123 -7.588684 11.3281 -24.02414 -0 4.324549 -0 6.807066 -17.05099 26.01341 -4.066387 -4.718195 5.536921 3.107915 10.66681 -8.166417 2.17252 21.70493 5.107732 2.104647 -26.192 9.676601 5.941838 -21.2667 10.87194 86.38923 34.24824 -20.91424 -0 0 17.24797 -5.050704 7.136727 2.203622 6.229887 -20.5391 -2.154544 -95.7349 26.20359 24.2154 0 0 -15.16647 11.17852 17.60252 2.755414
0.5070665 103.2697 2.84291 0.7641149 -0.1349086 0.1760476 3.710449 -18.3829 8.459166 -0 34.8821 -0 -5.219914 -15.78377 -3.423577 -6.79662 11.31133 -23.1191 -0 4.629772 -0 5.249718 -19.21574 25.15501 -3.128027 -3.684033 5.14578 3.151721 10.25448 -8.133745 1.821496 21.21074 5.962682 2.517866 -26.61105 9.875619 5.829712 -20.20592 11.07753 86.70772 34.96966 -20.91166 -0 0 15.62548 -5.599873 7.752944 3.014208 6.362886 -20.7448 -1.619744 -94.3219 25.21899 22.77235 0 0 -16.66314 11.53781 16.0906 1.927612
0.7701297 103.0627 4.550524 0.07481148 0.7006372 0.1902701 4.822509 -21.74094 8.860187 -0 33.42024 -0 -5.298028 -14.24392 -3.457934 -6.339135 11.23935 -22.56437 -0 4.744005 -0 4.364089 -20.59074 24.62918 -2.693934 -3.20695 4.971949 3.18961 10.10889 -8.191972 1.674412 20.94608 6.31217 2.698407 -26.89176 9.937392 5.723423 -19.76755 11.18687 87.07426 35.22986 -21.19137 -0 0 14.82048 -5.76792 7.899579 3.341178 6.414601 -20.89413 -1.434774 -93.65862 25.00789 22.1255 0 0 -17.70927 11.47988 15.29085 1.913054
1.046618 102.6533 6.63281 -0.4486143 1.52093 0.2538038 5.685158 -25.93578 8.228853 -0 29.53422 -0 -5.672964 -11.81086 -3.075479 -6.035265 11.56512 -21.3513 -0 4.855875 -0 4.184416 -21.95974 23.65795 -2.257851 -2.721617 4.786172 3.226692 9.990198 -8.264308 1.512259 20.66617 6.667045 2.901621 -27.09495 9.945973 5.623819 -19.29831 11.30935 87.4534 35.47078 -21.48963 -0 0 13.95941 -6.076193 8.140846 3.730683 6.481117 -21.0942 -1.277987 -92.90324 24.67977 21.35754 0 0 -18.81316 11.41653 14.41261 1.883663
1.329627 102.0458 9.087337 -0.7899069 2.330142 0.3836234 6.295142 -29.43622 7.680791 -0 25.63538 -0 -5.859164 -9.847292 -2.746699 -5.873738 11.97755 -20.31391 -0 5.031376 -0 4.115808 -23.03467 22.73603 -1.926267 -2.365878 4.649395 3.266237 9.934774 -8.361529 1.374932 20.44726 6.915977 3.056498 -27.23449 9.895201 5.538362 -18.9484 11.41656 87.83523 35.55997 -21.86778 -0 0 13.2793 -6.349633 8.29618 4.029076 6.518079 -21.30212 -1.204748 -92.36772 24.55421 20.82213 0 0 -19.72911 11.14626 13.70707 2.148134
1.607438 101.2318 12.03367 -1.01137 3.115522 0.6161989 6.690528 -32.61928 6.837943 -0 21.14525 -0 -6.100208 -7.682353 -2.293764 -5.798485 12.66013 -19.15569 -0 5.624341 -0 4.088117 -23.82111 21.57549 -1.637715 -2.056632 4.530719 3.296879 9.912517 -8.458213 1.237973 20.26165 7.125336 3.199687 -27.28818 9.79326 5.470835 -18.62555 11.52007 88.18025 35.58423 -22.22672 -0 0 12.66619 -6.707664 8.478449 4.337423 6.541576 -21.5201 -1.168892 -91.90018 24.44226 20.34705 0 0 -20.50133 10.78848 13.06198 2.507106
1.869281 100.2889 15.53263 -1.22327 3.844963 0.9794378 7.064693 -35.05031 6.150178 -0 17.2561 -0 -6.367397 -5.569622 -1.868313 -5.705716 13.46167 -18.09513 -0 6.91564 -0 3.687598 -24.16248 20.21149 -1.398319 -1.801807 4.441293 3.314761 9.921605 -8.550243 1.106292 20.11804 7.285627 3.321665 -27.2739 9.64806 5.418976 -18.3519 11.61571 88.48499 35.54388 -22.56266 -0 0 12.15521 -7.11863 8.652753 4.638762 6.542957 -21.7344 -1.16885 -91.54329 24.40294 19.99414 0 0 -21.10721 10.31834 12.50547 3.005648
2.10614 99.34322 19.66543 -1.511142 4.450222 1.492388 7.53335 -36.49654 5.677807 -0 14.45096 -0 -6.744494 -3.458385 -1.459411 -5.506977 14.30854 -17.06111 -0 9.33799 -0 2.66231 -23.78906 18.4685 -1.196431 -1.579842 4.375965 3.314425 9.953594 -8.627577 0.9771198 20.01095 7.410843 3.429227 -27.18839 9.465535 5.381013 -18.11092 11.70518 88.73465 35.46999 -22.83826 -0 0 11.72522 -7.61216 8.84404 4.96119 6.52443 -21.9374 -1.192222 -91.25413 24.38927 19.71952 0 0 -21.56405 9.776817 12.0082 3.584406
2.319876 98.56949 24.47477 -1.953491 4.87053 2.140378 8.189254 -36.63386 5.558633 -0 13.28683 -0 -7.20773 -1.661229 -1.118299 -5.119415 14.95448 -16.04598 -0 13.2313 -0 0.808697 -22.39816 16.27836 -1.031044 -1.385994 4.337574 3.292905 10.00441 -8.685606 0.8517436 19.93991 7.502879 3.521509 -27.03956 9.251951 5.353502 -17.90773 11.78802 88.92483 35.37673 -23.0405 -0 0 11.38202 -8.186542 9.047386 5.309391 6.483989 -22.12115 -1.23491 -91.02845 24.40692 19.52812 0 0 -21.88403 9.171396 11.56476 4.23946
2.527872 98.15602 29.9487 -2.56074 5.035243 2.844171 8.972083 -35.21949 5.723148 -0 13.77961 -0 -7.669303 -0.6084803 -0.8878988 -4.520329 15.05705 -14.94529 -0 18.94224 -0 -1.786571 -19.70858 13.70761 -0.8998947 -1.212108 4.326412 3.247306 10.07012 -8.71905 0.7305692 19.90224 7.566375 3.600206 -26.82837 9.011844 5.332844 -17.74115 11.86485 89.04833 35.28026 -23.15014 -0 0 11.12218 -8.854213 9.270446 5.69646 6.42156 -22.2791 -1.292518 -90.84634 24.43926 19.4041 0 0 -22.08406 8.521101 11.15984 4.94752
2.762053 98.25203 35.9807 -3.222465 4.867038 3.439697 9.652262 -32.20454 5.944608 -0 15.28799 -0 -7.999266 -0.760383 -0.8347652 -3.794628 14.18385 -13.66464 -0 26.64209 -0 -4.666719 -15.77487 11.11653 -0.8034178 -1.054439 4.345092 3.175199 10.14791 -8.723586 0.6148829 19.89649 7.603204 3.665407 -26.55721 8.749509 5.31508 -17.61523 11.93576 89.09897 35.19172 -23.15221 -0 0 10.94961 -9.622362 9.515176 6.130457 6.336175 -22.40474 -1.362814 -90.69774 24.48071 19.34396 0 0 -22.17769 7.836633 10.78402 5.698388
3.050471 98.90969 42.35606 -3.672011 4.241278 3.707826 9.895772 -27.73144 5.908406 -0 16.64716 -0 -8.175272 -2.224675 -0.9903614 -3.145086 11.9273 -12.21407 -0 36.17323 -0 -7.125668 -11.24802 9.100307 -0.7428003 -0.9098252 4.396914 3.073837 10.23569 -8.69424 0.5063462 19.92121 7.614732 3.717298 -26.22581 8.468607 5.295972 -17.53415 12.00089 89.06799 35.12004 -23.02829 -0 0 10.86944 -10.50235 9.785983 6.620821 6.226988 -22.4911 -1.44411 -90.57189 24.52093 19.34294 0 0 -22.17496 7.130221 10.42744 6.47881
